<?xml version="1.0" encoding="utf-8"?>
<svg xmlns="http://www.w3.org/2000/svg" viewBox="68.4516 148.1884 578.0778 369.72" width="578.0778pt" height="369.72pt"><path d="M 4396 5195 C 4613 5162 4750 5099 4867 4976 C 5016 4821 5086 4636 5097 4365 C 5102 4249 5089 4055 5073 4014 C 5067 3997 5050 3996 5050 4013 C 5050 4040 4937 4256 4875 4346 C 4839 4399 4810 4444 4810 4446 C 4810 4448 4871 4450 4945 4450 C 5100 4450 5094 4445 5060 4544 C 5020 4662 4986 4706 4886 4771 C 4750 4860 4646 4908 4557 4925 C 4473 4941 4292 4944 4200 4931 C 4155 4924 4133 4927 4077 4946 C 3919 5000 3686 5032 3519 5024 L 3445 5020 L 3500 5046 C 3640 5112 3905 5184 4080 5203 C 4166 5212 4301 5209 4396 5195 Z M 2382 5186 C 2485 5169 2614 5132 2758 5079 C 2890 5030 3070 4950 3070 4940 C 3070 4936 3058 4929 3043 4926 C 2986 4912 2772 4798 2685 4735 C 2626 4691 2588 4671 2575 4674 C 2564 4676 2515 4692 2466 4709 C 2271 4778 2136 4808 1980 4819 L 1885 4825 L 1882 4905 C 1877 5026 1902 5090 1975 5146 C 1994 5160 2031 5178 2057 5185 C 2122 5203 2275 5203 2382 5186 Z M 1907 5141 C 1853 5081 1837 5018 1843 4891 C 1846 4808 1854 4764 1879 4690 C 1967 4425 2164 4115 2439 3808 C 2755 3456 3148 3108 3539 2835 C 3595 2796 3618 2775 3609 2770 C 3581 2755 3070 2680 2998 2680 C 2957 2680 2643 2946 2414 3175 C 2148 3441 1978 3641 1829 3867 C 1788 3928 1740 4000 1723 4027 C 1672 4102 1585 4286 1555 4380 C 1537 4438 1526 4496 1523 4565 C 1515 4716 1527 4748 1655 4911 C 1806 5104 1835 5135 1882 5159 C 1943 5189 1947 5185 1907 5141 Z M 4982 4951 C 5226 4786 5364 4524 5400 4162 C 5424 3921 5364 3571 5252 3296 L 5215 3205 L 5125 3171 C 4990 3120 4756 3041 4752 3045 C 4750 3047 4766 3079 4789 3117 C 4882 3274 5043 3667 5085 3841 C 5130 4028 5143 4148 5137 4330 C 5134 4427 5125 4526 5115 4569 C 5082 4716 5009 4864 4921 4963 C 4867 5022 4882 5020 4982 4951 Z M 3905 4950 C 4404 4843 4822 4486 5006 4008 L 5040 3921 L 5006 3786 C 4972 3655 4907 3464 4889 3446 C 4884 3440 4880 3462 4880 3501 C 4880 3655 4824 3883 4749 4032 C 4695 4141 4609 4262 4520 4354 C 4189 4697 3721 4831 3255 4714 C 2901 4625 2592 4377 2425 4047 C 2398 3994 2374 3950 2371 3950 C 2368 3950 2334 3991 2296 4041 L 2227 4132 L 2245 4169 C 2276 4234 2386 4393 2451 4467 C 2685 4732 3004 4908 3355 4965 C 3487 4986 3773 4978 3905 4950 Z M 5611 4396 C 5799 4364 5900 4338 6029 4288 C 6142 4244 6277 4159 6297 4120 C 6334 4047 6297 3923 6204 3808 L 6183 3782 L 6115 3816 C 5997 3875 5763 3936 5553 3961 L 5450 3973 L 5450 4054 C 5450 4123 5427 4294 5404 4393 C 5398 4418 5400 4420 5431 4420 C 5450 4420 5531 4409 5611 4396 Z M 6406 3845 C 6420 3785 6438 3718 6447 3697 C 6513 3541 6398 3332 6141 3141 C 5760 2859 5159 2615 4364 2420 C 3632 2240 2900 2147 2225 2148 C 1802 2148 1498 2182 1250 2257 C 1050 2317 958 2363 867 2448 C 800 2512 783 2548 732 2750 C 667 3006 666 2992 746 2912 C 793 2866 841 2831 896 2802 C 1424 2530 2617 2521 3882 2780 C 5183 3046 6199 3531 6335 3951 C 6345 3981 6355 4012 6358 4020 C 6361 4028 6367 4017 6372 3995 C 6377 3973 6392 3906 6406 3845 Z M 1826 3793 C 1852 3755 1896 3696 1923 3662 L 1972 3598 L 1936 3519 C 1916 3476 1900 3437 1900 3432 C 1900 3416 1866 3394 1795 3365 C 1665 3312 1403 3174 1288 3098 C 1156 3011 1049 2922 1000 2857 L 965 2812 L 906 2843 C 789 2905 700 3011 700 3087 C 700 3131 783 3252 872 3336 C 997 3454 1133 3547 1353 3665 C 1451 3717 1755 3859 1772 3860 C 1775 3860 1800 3830 1826 3793 Z M 2033 3398 C 2039 3258 2063 3119 2104 2985 C 2128 2908 2129 2904 2115 2815 C 2107 2766 2098 2704 2095 2678 L 2089 2630 L 2046 2630 C 2022 2630 1955 2633 1897 2637 L 1790 2643 L 1790 2706 C 1790 2800 1816 2980 1849 3115 C 1883 3253 1901 3305 1960 3448 C 2015 3581 2025 3574 2033 3398 Z M 2241 3288 C 2290 3234 2309 3205 2315 3175 C 2338 3047 2425 2847 2515 2716 C 2540 2678 2560 2647 2558 2645 C 2556 2644 2503 2640 2439 2636 L 2323 2629 L 2292 2678 C 2250 2743 2178 2898 2147 2990 C 2107 3111 2070 3331 2070 3440 L 2071 3475 L 2123 3418 C 2152 3387 2205 3328 2241 3288 Z M 5571 2636 C 5614 2525 5640 2417 5640 2352 C 5640 2309 5634 2290 5613 2260 C 5564 2193 5469 2145 5362 2134 L 5305 2128 L 5286 2200 C 5263 2292 5222 2391 5165 2497 C 5140 2543 5120 2584 5120 2589 C 5120 2593 5180 2619 5253 2645 C 5325 2672 5414 2706 5450 2721 C 5527 2754 5525 2756 5571 2636 Z M 4702 2413 C 4609 2308 4595 2297 4566 2304 C 4552 2307 4506 2326 4463 2346 L 4385 2382 L 4560 2430 C 4656 2456 4741 2478 4749 2479 C 4756 2479 4735 2450 4702 2413 Z M 4675 2215 C 4936 2120 5122 2085 5314 2092 C 5449 2098 5516 2117 5582 2170 C 5625 2205 5630 2194 5597 2135 C 5570 2088 5373 1835 5339 1803 C 5305 1772 5212 1732 5144 1719 C 5063 1704 4868 1714 4745 1739 C 4463 1799 4049 1974 3696 2184 C 3614 2233 3583 2219 3945 2290 C 4088 2318 4230 2347 4260 2354 L 4315 2366 L 4435 2313 C 4501 2283 4609 2239 4675 2215 Z M 3520 2165 C 3622 2160 3653 2155 3688 2137 C 3711 2125 3730 2113 3730 2110 C 3730 2107 3668 2072 3591 2032 C 3437 1952 3423 1949 3292 1976 C 3159 2003 2859 2112 2875 2128 C 2886 2140 3259 2178 3325 2174 C 3364 2172 3451 2168 3520 2165 Z M 2198 2045 C 2241 1978 2284 1944 2414 1876 C 2499 1831 2552 1811 2645 1789 L 2725 1770 L 2595 1774 C 2400 1779 2253 1820 2125 1905 C 2062 1947 1979 2026 1941 2078 L 1919 2110 L 2037 2110 L 2156 2110 L 2198 2045 Z M 3958 1992 L 4129 1904 L 4002 1827 C 3729 1662 3433 1553 3166 1520 C 3028 1502 2808 1512 2702 1539 C 2620 1560 2475 1614 2455 1630 C 2450 1634 2399 1661 2342 1690 C 2238 1743 2169 1790 2092 1864 C 2029 1923 2020 1947 2077 1904 C 2137 1858 2265 1795 2350 1770 C 2484 1731 2647 1721 2815 1741 C 2909 1752 3202 1824 3328 1866 C 3426 1898 3629 1991 3710 2040 C 3746 2062 3778 2079 3781 2080 C 3785 2080 3864 2040 3958 1992 Z" id="object-0" transform="matrix(0.10000000149011612, 0, 0, -0.10000000149011612, 0, 669.0000610351562)" style="fill: rgb(255, 255, 255);"/></svg>